<?xml version="1.0" encoding="UTF-8"?>
<!DOCTYPE svg PUBLIC "-//W3C//DTD SVG 1.1//EN" "http://www.w3.org/Graphics/SVG/1.1/DTD/svg11.dtd">
<svg xmlns="http://www.w3.org/2000/svg" version="1.1" width="1920px" height="1920px" style="shape-rendering:geometricPrecision; text-rendering:geometricPrecision; image-rendering:optimizeQuality; fill-rule:evenodd; clip-rule:evenodd" xmlns:xlink="http://www.w3.org/1999/xlink">
<g><path style="opacity:0.994" fill="#000000" d="M 433.5,526.5 C 575.834,526.333 718.167,526.5 860.5,527C 967.167,593.667 1073.83,660.333 1180.5,727C 1183.46,728.973 1186.63,730.473 1190,731.5C 1193.4,731.302 1195.73,729.635 1197,726.5C 1237.67,661.167 1278.33,595.833 1319,530.5C 1320.21,528.951 1321.71,527.785 1323.5,527C 1412.5,526.333 1501.5,526.333 1590.5,527C 1593.8,527.575 1595.46,529.575 1595.5,533C 1594.34,537.156 1592.51,540.989 1590,544.5C 1483.54,715.252 1376.71,885.752 1269.5,1056C 1268,1056.5 1266.5,1057 1265,1057.5C 1261.62,1056.46 1258.46,1054.96 1255.5,1053C 982.001,881.75 708.335,710.75 434.5,540C 431.675,537.857 429.675,535.19 428.5,532C 428.99,529.013 430.657,527.18 433.5,526.5 Z"/></g>
<g><path style="opacity:0.994" fill="#000000" d="M 652.5,861.5 C 656.607,861.925 660.274,863.425 663.5,866C 936.999,1037.25 1210.67,1208.25 1484.5,1379C 1486.33,1380.83 1488.17,1382.67 1490,1384.5C 1491.41,1388.75 1489.91,1391.25 1485.5,1392C 1343.17,1392.67 1200.83,1392.67 1058.5,1392C 951.833,1325.33 845.167,1258.67 738.5,1192C 735.536,1190.03 732.369,1188.53 729,1187.5C 725.599,1187.7 723.266,1189.36 722,1192.5C 681.125,1259.09 639.625,1325.25 597.5,1391C 552.416,1392.16 507.249,1392.66 462,1392.5C 416.442,1392.66 370.942,1392.16 325.5,1391C 323.718,1388.76 323.218,1386.26 324,1383.5C 431.75,1210.33 539.75,1037.33 648,864.5C 649.409,863.219 650.909,862.219 652.5,861.5 Z"/></g>
</svg>
